<?xml version="1.0" encoding="UTF-8" standalone="no"?>
<svg
   xmlns:dc="http://purl.org/dc/elements/1.1/"
   xmlns:cc="http://creativecommons.org/ns#"
   xmlns:rdf="http://www.w3.org/1999/02/22-rdf-syntax-ns#"
   xmlns:svg="http://www.w3.org/2000/svg"
   xmlns="http://www.w3.org/2000/svg"
   viewBox="0 0 74.417198 61.333332"
   height="61.333332"
   width="74.417198"
   xml:space="preserve"
   id="svg2"
   version="1.1"><metadata
     id="metadata8"><rdf:RDF><cc:Work
         rdf:about=""><dc:format>image/svg+xml</dc:format><dc:type
           rdf:resource="http://purl.org/dc/dcmitype/StillImage" /></cc:Work></rdf:RDF></metadata><defs
     id="defs6"><clipPath
       id="clipPath18"
       clipPathUnits="userSpaceOnUse"><path
         id="path16"
         d="M 0,46 H 55.813 V 0 H 0 Z" /></clipPath></defs><g
     transform="matrix(1.3333333,0,0,-1.3333333,0,61.333333)"
     id="g10"><g
       id="g12"><g
         clip-path="url(#clipPath18)"
         id="g14"><g
           transform="translate(30.4416,8.7021)"
           id="g20"><path
             id="path22"
             style="fill:#3e3736;fill-opacity:1;fill-rule:nonzero;stroke:none"
             d="m 0,0 c 0,-1.441 -1.179,-2.686 -2.62,-2.686 -1.441,0 -2.62,1.114 -2.62,2.554 0,1.703 1.179,2.686 2.62,2.686 C -1.179,2.554 0,1.44 0,0" /></g><g
           transform="translate(6.7707,29.3193)"
           id="g24"><path
             id="path26"
             style="fill:#3e3736;fill-opacity:1;fill-rule:evenodd;stroke:none"
             d="M 0,0 C -0.945,-0.94 -2.374,0.498 -1.43,1.437 10.927,13.74 31.344,13.74 43.701,1.437 44.646,0.497 43.217,-0.94 42.271,0 30.708,11.515 11.564,11.515 0,0" /></g><g
           transform="translate(13.759,22.3311)"
           id="g28"><path
             id="path30"
             style="fill:#3e3736;fill-opacity:1;fill-rule:evenodd;stroke:none"
             d="M 0,0 C -0.945,-0.94 -2.374,0.497 -1.429,1.437 7.106,9.92 21.188,9.92 29.724,1.437 30.669,0.497 29.239,-0.94 28.295,0 20.553,7.694 7.742,7.694 0,0" /></g><g
           transform="translate(20.6823,15.4004)"
           id="g32"><path
             id="path34"
             style="fill:#3e3736;fill-opacity:1;fill-rule:evenodd;stroke:none"
             d="m 0,0 c -0.95,-0.936 -2.372,0.51 -1.421,1.444 4.747,4.692 12.545,4.692 17.291,0 C 16.82,0.51 15.399,-0.936 14.449,0 10.49,3.913 3.959,3.913 0,0" /></g></g></g></g></svg>