<?xml version="1.0" encoding="UTF-8" standalone="no"?>
<svg
   xmlns:dc="http://purl.org/dc/elements/1.1/"
   xmlns:cc="http://creativecommons.org/ns#"
   xmlns:rdf="http://www.w3.org/1999/02/22-rdf-syntax-ns#"
   xmlns:svg="http://www.w3.org/2000/svg"
   xmlns="http://www.w3.org/2000/svg"
   viewBox="0 0 74.417198 61.333332"
   height="61.333332"
   width="74.417198"
   xml:space="preserve"
   id="svg2"
   version="1.1"><metadata
     id="metadata8"><rdf:RDF><cc:Work
         rdf:about=""><dc:format>image/svg+xml</dc:format><dc:type
           rdf:resource="http://purl.org/dc/dcmitype/StillImage" /></cc:Work></rdf:RDF></metadata><defs
     id="defs6"><clipPath
       id="clipPath18"
       clipPathUnits="userSpaceOnUse"><path
         id="path16"
         d="M 0,46 H 55.813 V 0 H 0 Z" /></clipPath></defs><g
     transform="matrix(1.3333333,0,0,-1.3333333,0,61.333333)"
     id="g10"><g
       id="g12"><g
         clip-path="url(#clipPath18)"
         id="g14"><path
           id="path20"
           style="fill:#3e3736;fill-opacity:1;fill-rule:nonzero;stroke:none"
           d="m 33.936,28.948 h -13.86 v 2.974 h 13.86 z m 0,-4.74 h -13.86 v 2.974 h 13.86 z m 0,-4.646 h -13.86 v 2.974 h 13.86 z m 5.779,23.558 c -3.216,0 -5.822,-2.787 -5.822,-6.226 V 33.595 H 20.076 v 3.299 c 0,2.509 1.911,4.554 4.258,4.554 2.346,0 4.258,-2.045 4.258,-4.554 0,-0.465 0.348,-0.837 0.782,-0.837 0.435,0 0.782,0.372 0.782,0.837 0,3.439 -2.607,6.226 -5.822,6.226 -3.215,0 -5.822,-2.787 -5.822,-6.226 V 15.751 c -0.044,-0.465 0.347,-0.883 0.782,-0.883 0.434,0 0.782,0.372 0.782,0.837 v 2.091 h 13.86 v -2.091 c 0,-0.465 0.347,-0.837 0.782,-0.837 0.435,0 0.782,0.372 0.782,0.837 v 21.189 c 0,2.509 1.912,4.554 4.258,4.554 2.347,0 4.215,-2.045 4.215,-4.554 0,-0.465 0.347,-0.837 0.782,-0.837 0.435,0 0.782,0.372 0.782,0.837 0,3.439 -2.607,6.226 -5.822,6.226" /><g
           transform="translate(43.5822,11.6152)"
           id="g22"><path
             id="path24"
             style="fill:#3e3736;fill-opacity:1;fill-rule:nonzero;stroke:none"
             d="m 0,0 c -0.174,0.419 -0.652,0.65 -1.043,0.419 -3.911,-1.813 -5.822,-0.93 -7.864,0 -2.086,0.929 -4.215,1.904 -7.995,0 -3.91,-1.813 -5.822,-0.93 -7.865,0 -2.085,0.929 -4.257,1.904 -8.038,0 -0.39,-0.187 -0.564,-0.697 -0.39,-1.115 0.174,-0.419 0.651,-0.605 1.042,-0.419 3.172,1.58 4.823,0.837 6.735,-0.046 1.26,-0.558 2.607,-1.162 4.388,-1.162 1.304,0 2.824,0.325 4.736,1.208 3.172,1.58 4.823,0.837 6.734,-0.046 1.261,-0.558 2.608,-1.162 4.389,-1.162 1.304,0 2.824,0.325 4.736,1.208 C -0.044,-0.929 0.174,-0.418 0,0" /></g><g
           transform="translate(43.5383,5.2031)"
           id="g26"><path
             id="path28"
             style="fill:#3e3736;fill-opacity:1;fill-rule:nonzero;stroke:none"
             d="m 0,0 c -0.174,0.418 -0.651,0.65 -1.043,0.418 -3.91,-1.813 -5.822,-0.93 -7.864,0 -2.085,0.93 -4.214,1.905 -7.995,0 -3.91,-1.813 -5.822,-0.93 -7.864,0 -2.086,0.93 -4.214,1.905 -8.038,0 -0.391,-0.186 -0.565,-0.697 -0.391,-1.115 0.217,-0.418 0.695,-0.604 1.086,-0.418 3.172,1.58 4.823,0.836 6.735,-0.047 1.26,-0.558 2.607,-1.161 4.388,-1.161 1.304,0 2.824,0.325 4.736,1.208 3.172,1.58 4.823,0.836 6.734,-0.047 1.261,-0.558 2.608,-1.161 4.389,-1.161 1.304,0 2.824,0.325 4.736,1.208 C 0,-0.93 0.218,-0.418 0,0" /></g></g></g></g></svg>